inDegrees=no
num_controls=7
num_derivatives=13
num_iterations=244
num_multipliers=7
num_parameters=0
num_slacks=7
num_states=26
objective=6.354563
objective_accelerations=0.578201
objective_balance=0.067256
objective_effort=0.507857
objective_height=5.152883
objective_ligament=0.048366
solver_duration=2078.657524
status=Solve_Succeeded
success=true
DataType=double
version=3
OpenSimVersion=4.4-2022-07-23-0e9fedc
endheader
time	/jointset/ground_pelvis/pelvis_tilt/value	/jointset/ground_pelvis/pelvis_tx/value	/jointset/ground_pelvis/pelvis_ty/value	/jointset/hip_r/hip_flexion_r/value	/jointset/hip_r/hip_adduction_r/value	/jointset/hip_r/hip_rotation_r/value	/jointset/back/lumbar_extension/value	/jointset/patellofemoral_r/patellar_flexion_r/value	/jointset/knee_r/knee_flexion_r/value	/jointset/knee_r/knee_adduction_r/value	/jointset/knee_r/knee_rotation_r/value	/jointset/ankle_r/ankle_angle_r/value	/jointset/subtalar_r/subtalar_angle_r/value	/jointset/ground_pelvis/pelvis_tilt/speed	/jointset/ground_pelvis/pelvis_tx/speed	/jointset/ground_pelvis/pelvis_ty/speed	/jointset/hip_r/hip_flexion_r/speed	/jointset/hip_r/hip_adduction_r/speed	/jointset/hip_r/hip_rotation_r/speed	/jointset/back/lumbar_extension/speed	/jointset/patellofemoral_r/patellar_flexion_r/speed	/jointset/knee_r/knee_flexion_r/speed	/jointset/knee_r/knee_adduction_r/speed	/jointset/knee_r/knee_rotation_r/speed	/jointset/ankle_r/ankle_angle_r/speed	/jointset/subtalar_r/subtalar_angle_r/speed	/forceset/tau_hip_flexion_r	/forceset/tau_hip_adduction_r	/forceset/tau_hip_rotation_r	/forceset/tau_knee_flexion_r	/forceset/tau_ankle_angle_r	/forceset/tau_subtalar_angle_r	/forceset/tau_lumbar_extension	lambda_cid13_p0	lambda_cid14_p0	lambda_cid14_p1	lambda_cid14_p2	lambda_cid14_p3	lambda_cid14_p4	lambda_cid14_p5	/jointset/ground_pelvis/pelvis_tilt/accel	/jointset/ground_pelvis/pelvis_tx/accel	/jointset/ground_pelvis/pelvis_ty/accel	/jointset/hip_r/hip_flexion_r/accel	/jointset/hip_r/hip_adduction_r/accel	/jointset/hip_r/hip_rotation_r/accel	/jointset/back/lumbar_extension/accel	/jointset/patellofemoral_r/patellar_flexion_r/accel	/jointset/knee_r/knee_flexion_r/accel	/jointset/knee_r/knee_adduction_r/accel	/jointset/knee_r/knee_rotation_r/accel	/jointset/ankle_r/ankle_angle_r/accel	/jointset/subtalar_r/subtalar_angle_r/accel	gamma_cid13_p0	gamma_cid14_p0	gamma_cid14_p1	gamma_cid14_p2	gamma_cid14_p3	gamma_cid14_p4	gamma_cid14_p5
0	-0.006516719250247977	0.09626122316312707	0.9427240275441608	0.1762555651711513	-0.2321527127280002	-0.2616407680353968	-0.0385979564078546	0.07317816487762104	0.07317816487761825	0.1745329251994329	0.174532922347213	0.0324735960626065	-0.003451809742980437	0	0	0	0	0	0	0	0	0	0	0	0	0	0.2436523053051841	-0.2004839917854507	-0.04956339279336955	-0.4433477185309682	0.4549440645833374	-0.130505140805093	-0.134488857170614	-39.07628346661724	97.15794234553171	-30.01500433825973	-5.779412271204367	-48.64096599266099	-677.0090800384545	79.05855547897903	-2.207026285295816	-0.9112522982286879	-0.6633409389263306	9.289382505745115	-0.1418669563972702	2.754322018125895	-4.940991920083475	9.981509823448521	9.98150982344875	-2.399702060455342	0.1867106865726972	3.637010135265384	0.6605980296410762	8.766680350311535e-08	1.692175737742363e-08	-6.996449625311669e-07	1.817535980663057e-07	5.225605140268402e-08	-1.640872707078042e-08	-3.365868806031515e-07
0.01	-0.006619825993110623	0.09621620027764245	0.9426920998476411	0.1767045261941153	-0.2321587156114978	-0.2614950483966375	-0.03884786458985475	0.07366298488768908	0.07366298488767602	0.1744136276155635	0.1745302283215168	0.03265078918720071	-0.003418805549223938	-0.02051197106061487	-0.008983166933314713	-0.006371277907954194	0.08939091124266089	-0.001237700059231728	0.02899329005257675	-0.04964774135077678	0.09654414388644848	0.09654414388644908	-0.02365311654759029	-0.0005163615201493902	0.03524728403308872	0.006518643788943338	0.2368157682575248	-0.204462237168052	-0.04775478234526284	-0.4333896050610675	0.4390558708985207	-0.1211279889871818	-0.1291413339482733	-39.09255746179461	92.38997926252685	-26.81576706134164	-6.245568917132877	-45.61863373671967	-677.3433527365264	84.60085465171133	-1.956874545692638	-0.8886269151902367	-0.6218852890721086	8.7037517582914	-0.1203634599831621	2.949284937383757	-4.926580985211009	9.427870418689748	9.427870418689658	-2.317037940654682	-0.16738523136261	3.439898474531167	0.6350797335729546	1.191217110740174e-07	5.728098082614855e-09	-9.60644774501284e-07	1.67730831735238e-07	8.855905535341573e-08	-2.021220414984227e-07	-4.014992482955715e-07
0.02	-0.006924770852431376	0.09608199011796306	0.9425968865575736	0.1780353575944729	-0.2321782238814489	-0.2610639053696579	-0.03958423333388739	0.07510064708612166	0.0751006470861227	0.1740640075849194	0.1745230555485825	0.0331747173395648	-0.003323098481567645	-0.04036762329117993	-0.01783745483895366	-0.01265711870953168	0.1763740754759018	-0.00270107729034781	0.05708467764756114	-0.09729211240700048	0.1905684376707698	0.1905684376707705	-0.04606309264493591	-0.0008957494424520802	0.06934700555420097	0.0125405747799673	0.2299792312100476	-0.208440482550649	-0.04594617189710011	-0.4234314915910507	0.4231676772137516	-0.1117508371692561	-0.1237938107258277	-39.14071535347225	87.7084656173348	-23.61984360323549	-6.690122095022982	-42.81113258641874	-676.3800946346954	89.92460541094879	-2.075762519285836	-0.8854764926935551	-0.6462535176509868	8.807833103861141	-0.1870023907741226	2.573941526607371	-4.540317861172851	9.477539803023092	9.477539803023239	-2.151073970406443	0.2141054061420868	3.407497632870071	0.5612554700572174	1.505766186449194e-07	-5.465561212193923e-09	-1.221644586471401e-06	1.537080654041704e-07	1.248620593041474e-07	-3.878353559260649e-07	-4.664116159879915e-07
0.03	-0.007425476716881178	0.09585985404209006	0.9424389714165271	0.1802248540388404	-0.2322134302484103	-0.2603580327612885	-0.04078678065721863	0.07746673258579921	0.07746673258580065	0.1734966068995781	0.1745143404854922	0.0340340573314477	-0.00316952315881774	-0.05966803011538876	-0.02656913623286052	-0.01893027310878297	0.2611342983416864	-0.004361934599354192	0.08395033962312044	-0.1429039302221484	0.2822276844532707	0.2822276844532728	-0.06721469130193401	-0.0008613000283756183	0.1023290538210582	0.0181088200249307	0.2227839497301121	-0.2001455312540369	-0.0440559994404335	-0.4140412320620653	0.4101123063180486	-0.1132783824433991	-0.1182275278078654	-39.21946160142227	83.50047458555507	-25.03662955555872	-6.445304690006231	-39.97443426926512	-675.7064423765498	85.87891843486902	-1.84134318130418	-0.8638952282873423	-0.6185792598411608	8.251479994274671	-0.159036523409533	2.722009239307317	-4.524600436083102	8.946940201798572	8.946940201798686	-2.067028582653699	-0.1039170234121401	3.214792041169174	0.5445841233707075	1.641887542116449e-07	-1.680491361927769e-08	-1.341446000443416e-06	1.316648472501105e-07	1.471854389198984e-07	-5.253267669699682e-07	-4.884248850617964e-07
